# xmcd
#
# Track frame offsets: 
#        150
#        10932
#        37106
#        52029
#        69557
#        89823
#        111103
#        126670
#        138954
#        153363
#        165047
#        185866
#
# Disc length: 3010 seconds
#
# Revision: 0
# Processed by: cddbd v1.5.2PL0 Copyright (c) Steve Scherf et al.
# Submitted via: ExactAudioCopy v0.99pb5
#
DISCID=ab0bc00c
DTITLE=The Veldman Brothers - Home
DYEAR=2007
DGENRE=Blues
TTITLE0=Brothers Shuffle
TTITLE1=One More Chance
TTITLE2=Killing Floor
TTITLE3=This Pain
TTITLE4=Daytrippin' Man
TTITLE5=Easy Rider
TTITLE6=Settin' The Clock
TTITLE7=Tell Me Baby
TTITLE8=Let Me Love You Baby
TTITLE9=Harponized
TTITLE10=Waitin'
TTITLE11=All Those People
EXTD=
EXTT0=
EXTT1=
EXTT2=
EXTT3=
EXTT4=
EXTT5=
EXTT6=
EXTT7=
EXTT8=
EXTT9=
EXTT10=
EXTT11=
PLAYORDER=
